<?xml version="1.0" encoding="UTF-8"?>
<svg id="Objects" xmlns="http://www.w3.org/2000/svg" viewBox="0 0 129.42 129.42">
  <defs>
    <style>
      .cls-1 {
        fill: none;
      }

      .cls-2 {
        fill: #2e51ff;
      }

      .cls-3 {
        fill: #fff;
      }

      .cls-4 {
        fill: #ff7300;
      }
    </style>
  </defs>
  <path class="cls-2" d="M105.03,39c6.84,8.71,10.92,19.69,10.92,31.63,0,28.3-22.94,51.24-51.24,51.24-17.25,0-32.5-8.52-41.79-21.57l10.06-3.37c.8,1.18,2.16,1.97,3.71,1.97h54.01l.33-.3,13.64-12.45.37-.34v-46.8Z"/>
  <polygon class="cls-2" points="100.9 86.44 94.8 92.01 91.36 95.16 91.23 86.44 100.9 86.44"/>
  <path class="cls-2" d="M32.98,96.93l-10.06,3.37c-5.95-8.36-9.45-18.61-9.45-29.66,0-15.96,7.3-30.22,18.74-39.61v63.4c0,.93.28,1.79.77,2.51Z"/>
  <polygon class="cls-1" points="91.23 86.44 91.36 95.16 94.8 92.01 100.9 86.44 91.23 86.44"/>
  <path class="cls-4" d="M100.55,7.55h-63.87c-2.47,0-4.47,2.01-4.47,4.48v82.39c0,.93.28,1.79.77,2.51.8,1.18,2.16,1.97,3.71,1.97h54.01l.33-.3,13.64-12.45.37-.34V12.03c0-2.47-2.01-4.48-4.48-4.48ZM91.36,95.16l-.12-8.71h9.66l-6.09,5.57-3.45,3.14ZM102.72,84.14h-12.66c-.31,0-.61.12-.83.35s-.33.52-.33.83l.16,11.28h-52.39c-1.19,0-2.16-.97-2.16-2.17V12.03c0-1.19.97-2.17,2.16-2.17h63.87c1.2,0,2.17.98,2.17,2.17v72.11Z"/>
  <path class="cls-3" d="M100.55,9.86h-63.87c-1.19,0-2.16.98-2.16,2.17v82.39c0,1.2.97,2.17,2.16,2.17h52.39l-.16-11.28c0-.31.12-.61.33-.83s.52-.35.83-.35h12.66V12.03c0-1.19-.97-2.17-2.17-2.17ZM87.43,73.99h-37.46c-.63,0-1.15-.52-1.15-1.16s.52-1.15,1.15-1.15h37.46c.63,0,1.15.52,1.15,1.15s-.52,1.16-1.15,1.16ZM87.43,65.98h-37.46c-.63,0-1.15-.52-1.15-1.16s.52-1.15,1.15-1.15h37.46c.63,0,1.15.52,1.15,1.15s-.52,1.16-1.15,1.16ZM87.43,57.97h-37.46c-.63,0-1.15-.52-1.15-1.15s.52-1.16,1.15-1.16h37.46c.63,0,1.15.52,1.15,1.16s-.52,1.15-1.15,1.15ZM87.43,49.97h-37.46c-.63,0-1.15-.52-1.15-1.15s.52-1.16,1.15-1.16h37.46c.63,0,1.15.52,1.15,1.16s-.52,1.15-1.15,1.15ZM87.43,41.96h-37.46c-.63,0-1.15-.51-1.15-1.15s.52-1.16,1.15-1.16h37.46c.63,0,1.15.52,1.15,1.16s-.52,1.15-1.15,1.15ZM87.43,33.96h-37.46c-.63,0-1.15-.52-1.15-1.16s.52-1.15,1.15-1.15h37.46c.63,0,1.15.51,1.15,1.15s-.52,1.16-1.15,1.16Z"/>
  <path class="cls-4" d="M87.43,31.65h-37.46c-.63,0-1.15.51-1.15,1.15s.52,1.16,1.15,1.16h37.46c.63,0,1.15-.52,1.15-1.16s-.52-1.15-1.15-1.15Z"/>
  <path class="cls-4" d="M87.43,39.65h-37.46c-.63,0-1.15.52-1.15,1.16s.52,1.15,1.15,1.15h37.46c.63,0,1.15-.51,1.15-1.15s-.52-1.16-1.15-1.16Z"/>
  <path class="cls-4" d="M87.43,47.66h-37.46c-.63,0-1.15.52-1.15,1.16s.52,1.15,1.15,1.15h37.46c.63,0,1.15-.52,1.15-1.15s-.52-1.16-1.15-1.16Z"/>
  <path class="cls-4" d="M87.43,55.67h-37.46c-.63,0-1.15.52-1.15,1.16s.52,1.15,1.15,1.15h37.46c.63,0,1.15-.52,1.15-1.15s-.52-1.16-1.15-1.16Z"/>
  <path class="cls-4" d="M87.43,63.68h-37.46c-.63,0-1.15.52-1.15,1.15s.52,1.16,1.15,1.16h37.46c.63,0,1.15-.52,1.15-1.16s-.52-1.15-1.15-1.15Z"/>
  <path class="cls-4" d="M87.43,71.68h-37.46c-.63,0-1.15.52-1.15,1.15s.52,1.16,1.15,1.16h37.46c.63,0,1.15-.52,1.15-1.16s-.52-1.15-1.15-1.15Z"/>
</svg>