<?xml version="1.0" encoding="UTF-8"?>
<svg id="Layer_1" data-name="Layer 1" xmlns="http://www.w3.org/2000/svg" xmlns:xlink="http://www.w3.org/1999/xlink" viewBox="0 0 1764.98 189.17">
  <defs>
    <style>
      .cls-1 {
        fill: none;
      }

      .cls-2 {
        fill: #17824b;
      }

      .cls-2, .cls-3 {
        fill-rule: evenodd;
      }

      .cls-4 {
        fill: #2e51d2;
      }

      .cls-5 {
        clip-path: url(#clippath);
      }

      .cls-3 {
        fill: #fec100;
      }
    </style>
    <clipPath id="clippath">
      <rect class="cls-1" x="-41.38" y="-49.84" width="1847.74" height="288.85"/>
    </clipPath>
  </defs>
  <g class="cls-5">
    <path class="cls-2" d="M91.28,47.39c-.31.52-.31,1.17,0,1.7l53.56,89.59c.3.5.84.8,1.42.8h17.96c1.28,0,2.08-1.4,1.42-2.5L102.42,31.22c-.33-.56-1.15-.56-1.48,0l-9.66,16.17Z"/>
    <path class="cls-3" d="M90.66,66.52h9.05c.64,0,1.03.69.71,1.24l-4.52,7.83-4.52,7.83c-.32.55-1.11.55-1.43,0l-4.52-7.83-4.52-7.83c-.32-.55.08-1.24.71-1.24h9.05Z"/>
    <path class="cls-3" d="M79.86,84.68h9.05c.64,0,1.03.69.71,1.24l-4.52,7.83-4.52,7.83c-.32.55-1.11.55-1.43,0l-4.52-7.83-4.52-7.83c-.32-.55.08-1.24.71-1.24h9.05Z"/>
    <path class="cls-3" d="M68.99,103.14h9.05c.64,0,1.03.69.71,1.24l-4.52,7.83-4.52,7.83c-.32.55-1.11.55-1.43,0l-4.52-7.83-4.52-7.83c-.32-.55.08-1.24.71-1.24h9.05Z"/>
    <path class="cls-3" d="M58.47,122.09h9.05c.64,0,1.03.69.71,1.24l-4.52,7.83-4.52,7.83c-.32.55-1.11.55-1.43,0l-4.52-7.83-4.52-7.83c-.32-.55.08-1.24.71-1.24h9.05Z"/>
    <path class="cls-3" d="M79.93,122.09h9.05c.63,0,1.03.69.71,1.24l-4.52,7.83-4.52,7.83c-.32.55-1.11.55-1.43,0l-4.52-7.83-4.52-7.83c-.32-.55.08-1.24.71-1.24h9.05Z"/>
    <path class="cls-3" d="M101.68,122.09h9.05c.64,0,1.03.69.71,1.24l-4.52,7.83-4.52,7.83c-.32.55-1.11.55-1.43,0l-4.52-7.83-4.52-7.83c-.32-.55.08-1.24.71-1.24h9.05Z"/>
    <path class="cls-3" d="M123.42,122.09h9.05c.64,0,1.03.69.71,1.24l-4.52,7.83-4.52,7.83c-.32.55-1.11.55-1.43,0l-4.52-7.83-4.52-7.83c-.32-.55.08-1.24.71-1.24h9.05Z"/>
    <path class="cls-3" d="M90.95,103.14h9.05c.64,0,1.03.69.71,1.24l-4.52,7.83-4.52,7.83c-.32.55-1.11.55-1.43,0l-4.52-7.83-4.52-7.83c-.32-.55.08-1.24.71-1.24h9.05Z"/>
    <path class="cls-3" d="M112.12,103.14h9.05c.64,0,1.03.69.71,1.24l-4.52,7.83-4.52,7.83c-.32.55-1.11.55-1.43,0l-4.52-7.83-4.52-7.83c-.32-.55.08-1.24.71-1.24h9.05Z"/>
    <path class="cls-3" d="M101.96,84.68h9.05c.64,0,1.03.69.71,1.24l-4.52,7.83-4.52,7.83c-.32.55-1.11.55-1.43,0l-4.52-7.83-4.52-7.83c-.32-.55.08-1.24.71-1.24h9.05Z"/>
    <path class="cls-4" d="M238.02,136.93l-3.11-10.15c-.14-.28-.31-.42-.52-.42h-25.49c-.21,0-.38.14-.52.42l-3,10.15c-.21.69-.66,1.04-1.35,1.04h-13.16c-.42,0-.73-.12-.93-.36-.21-.24-.24-.6-.1-1.09l22.38-70.03c.21-.69.66-1.04,1.35-1.04h16.27c.69,0,1.14.35,1.35,1.04l22.38,70.03c.07.14.1.31.1.52,0,.62-.38.93-1.14.93h-13.16c-.69,0-1.14-.34-1.35-1.04M212.54,115.07h18.23c.42,0,.55-.21.42-.62l-9.32-30.77c-.07-.27-.17-.4-.31-.36-.14.04-.24.15-.31.36l-9.12,30.77c-.07.42.07.62.41.62"/>
    <path class="cls-4" d="M302.98,88.96c3.38,3.38,5.08,7.98,5.08,13.78v33.98c0,.35-.12.64-.36.88-.24.24-.54.36-.88.36h-12.12c-.35,0-.64-.12-.88-.36-.24-.24-.36-.53-.36-.88v-30.98c0-2.76-.78-5.01-2.33-6.73-1.55-1.73-3.61-2.59-6.16-2.59s-4.61.86-6.17,2.59c-1.55,1.73-2.33,3.97-2.33,6.73v30.98c0,.35-.12.64-.36.88-.24.24-.54.36-.88.36h-12.12c-.35,0-.64-.12-.88-.36-.24-.24-.36-.53-.36-.88v-50.76c0-.35.12-.64.36-.88.24-.24.54-.36.88-.36h12.12c.35,0,.64.12.88.36.24.24.36.53.36.88v3.63c0,.21.07.35.21.41.14.07.24.04.31-.1,2.83-4.01,7.05-6.01,12.64-6.01s9.98,1.69,13.36,5.08"/>
    <path class="cls-4" d="M351.41,85.08c.24-.24.53-.36.88-.36h12.12c.34,0,.64.12.88.36.24.24.36.54.36.88v47.24c0,9.05-2.61,15.5-7.82,19.37-5.22,3.87-11.93,5.8-20.15,5.8-2.42,0-5.11-.17-8.08-.52-.69-.07-1.04-.52-1.04-1.35l.41-10.67c0-.9.48-1.28,1.45-1.14,2.49.41,4.76.62,6.84.62,4.42,0,7.82-.97,10.2-2.9,2.38-1.93,3.57-5.04,3.57-9.32,0-.21-.07-.33-.21-.36-.14-.03-.28.02-.42.16-2.62,2.83-6.46,4.25-11.5,4.25-4.49,0-8.62-1.09-12.38-3.26-3.77-2.18-6.44-5.68-8.03-10.51-1.04-3.18-1.55-7.29-1.55-12.33,0-5.39.62-9.77,1.87-13.16,1.45-4.21,3.9-7.6,7.35-10.15,3.45-2.56,7.46-3.83,12.02-3.83,5.32,0,9.39,1.59,12.22,4.77.14.14.28.19.42.15.14-.03.21-.15.21-.36v-2.49c0-.35.12-.64.36-.88M351.05,110.92c0-2.14-.07-3.8-.21-4.97-.14-1.17-.38-2.28-.73-3.31-.62-1.86-1.66-3.37-3.11-4.51-1.45-1.14-3.25-1.71-5.39-1.71s-3.83.57-5.28,1.71c-1.45,1.14-2.52,2.64-3.21,4.51-.97,2.07-1.45,4.87-1.45,8.39,0,3.87.41,6.63,1.24,8.29.62,1.87,1.71,3.37,3.26,4.51,1.55,1.14,3.4,1.71,5.54,1.71s4.04-.57,5.49-1.71c1.45-1.14,2.45-2.61,3-4.4.55-2.07.83-4.9.83-8.5"/>
    <path class="cls-4" d="M423.67,114.65c-.07.83-.52,1.24-1.35,1.24h-32.01c-.42,0-.55.17-.42.52.21,1.38.59,2.76,1.14,4.14,1.79,3.87,5.45,5.8,10.98,5.8,4.42-.07,7.91-1.86,10.46-5.39.27-.42.59-.62.93-.62.21,0,.45.14.73.42l7.46,7.36c.35.35.52.66.52.93,0,.14-.14.41-.41.83-2.28,2.83-5.22,5.02-8.81,6.58-3.59,1.55-7.53,2.33-11.81,2.33-5.94,0-10.96-1.35-15.07-4.04-4.11-2.69-7.06-6.46-8.86-11.29-1.45-3.45-2.18-7.98-2.18-13.57,0-3.8.52-7.15,1.55-10.05,1.59-4.9,4.37-8.81,8.34-11.71,3.97-2.9,8.68-4.35,14.14-4.35,6.91,0,12.45,2,16.63,6.01,4.18,4.01,6.72,9.36,7.62,16.06.41,2.63.55,5.56.41,8.81M390.52,102.53c-.28.9-.52,2-.73,3.32,0,.35.17.52.52.52h17.92c.41,0,.55-.17.41-.52-.35-2-.52-2.97-.52-2.9-.62-2.07-1.71-3.68-3.26-4.82-1.55-1.14-3.47-1.71-5.75-1.71-4.35,0-7.22,2.04-8.6,6.11"/>
    <path class="cls-4" d="M433.05,137.6c-.24-.24-.36-.53-.36-.88v-70.03c0-.35.12-.64.36-.88.24-.24.53-.36.88-.36h12.12c.35,0,.64.12.88.36.24.24.36.54.36.88v70.03c0,.35-.12.64-.36.88-.24.24-.54.36-.88.36h-12.12c-.35,0-.64-.12-.88-.36"/>
    <path class="cls-4" d="M529.5,77.62c-.24.24-.54.36-.88.36h-33.88c-.35,0-.52.17-.52.52v16.06c0,.35.17.52.52.52h22.27c.35,0,.64.12.88.36.24.24.36.54.36.88v10.05c0,.35-.12.64-.36.88-.24.24-.54.36-.88.36h-22.27c-.35,0-.52.17-.52.52v28.59c0,.35-.12.64-.36.88-.24.24-.54.36-.88.36h-12.12c-.35,0-.64-.12-.88-.36-.24-.24-.36-.53-.36-.88v-70.04c0-.34.12-.64.36-.88.24-.24.53-.36.88-.36h47.76c.34,0,.64.12.88.36.24.24.36.54.36.88v10.05c0,.35-.12.64-.36.88"/>
    <path class="cls-4" d="M538.72,76.37c-1.55-1.55-2.33-3.5-2.33-5.85s.76-4.39,2.28-5.9c1.52-1.52,3.49-2.28,5.91-2.28s4.39.76,5.91,2.28c1.52,1.52,2.28,3.49,2.28,5.9s-.78,4.3-2.33,5.85-3.51,2.33-5.85,2.33-4.3-.78-5.85-2.33M537.48,137.6c-.24-.24-.36-.53-.36-.88v-50.87c0-.35.12-.64.36-.88.24-.24.53-.36.88-.36h12.12c.34,0,.64.12.88.36.24.24.36.53.36.88v50.87c0,.35-.12.64-.36.88-.24.24-.54.36-.88.36h-12.12c-.35,0-.64-.12-.88-.36"/>
    <path class="cls-4" d="M604.25,88.96c3.38,3.38,5.08,7.98,5.08,13.78v33.98c0,.35-.12.64-.36.88-.24.24-.54.36-.88.36h-12.12c-.35,0-.64-.12-.88-.36-.24-.24-.36-.53-.36-.88v-30.98c0-2.76-.78-5.01-2.33-6.73-1.55-1.73-3.61-2.59-6.16-2.59s-4.61.86-6.16,2.59c-1.55,1.73-2.33,3.97-2.33,6.73v30.98c0,.35-.12.64-.36.88-.24.24-.54.36-.88.36h-12.12c-.35,0-.64-.12-.88-.36-.24-.24-.36-.53-.36-.88v-50.76c0-.35.12-.64.36-.88.24-.24.53-.36.88-.36h12.12c.35,0,.64.12.88.36.24.24.36.53.36.88v3.63c0,.21.07.35.21.41.14.07.24.04.31-.1,2.83-4.01,7.05-6.01,12.64-6.01s9.98,1.69,13.36,5.08"/>
    <path class="cls-4" d="M653.04,86.22c3.52,1.55,6.27,3.68,8.24,6.37,1.97,2.69,2.95,5.7,2.95,9.01v35.12c0,.35-.12.64-.36.88-.24.24-.54.36-.88.36h-12.12c-.35,0-.64-.12-.88-.36-.24-.24-.36-.53-.36-.88v-3.42c0-.21-.07-.34-.21-.41-.14-.07-.28,0-.41.21-2.9,3.8-7.56,5.7-13.99,5.7-5.39,0-9.74-1.31-13.05-3.94-3.32-2.62-4.97-6.49-4.97-11.6s1.86-9.44,5.59-12.38c3.73-2.93,9.05-4.4,15.95-4.4h10.57c.34,0,.52-.17.52-.52v-2.28c0-2.28-.69-4.06-2.07-5.33-1.38-1.28-3.45-1.92-6.22-1.92-2.14,0-3.92.38-5.34,1.14-1.42.76-2.33,1.83-2.74,3.21-.21.76-.66,1.11-1.35,1.04l-12.54-1.66c-.83-.14-1.21-.45-1.14-.93.28-2.9,1.43-5.53,3.47-7.87,2.04-2.35,4.73-4.18,8.08-5.49,3.35-1.31,7.1-1.97,11.24-1.97,4.49,0,8.5.78,12.02,2.33M646.51,125.53c2.07-1.59,3.11-3.63,3.11-6.11v-3.73c0-.35-.17-.52-.52-.52h-7.46c-3.11,0-5.54.59-7.3,1.76-1.76,1.18-2.64,2.83-2.64,4.97,0,1.86.66,3.33,1.97,4.4,1.31,1.07,3.07,1.61,5.28,1.61,2.97,0,5.49-.79,7.56-2.38"/>
    <path class="cls-4" d="M715.62,88.96c3.38,3.38,5.08,7.98,5.08,13.78v33.98c0,.35-.12.64-.36.88-.24.24-.54.36-.88.36h-12.12c-.35,0-.64-.12-.88-.36-.24-.24-.36-.53-.36-.88v-30.98c0-2.76-.78-5.01-2.33-6.73-1.55-1.73-3.61-2.59-6.16-2.59s-4.61.86-6.16,2.59c-1.55,1.73-2.33,3.97-2.33,6.73v30.98c0,.35-.12.64-.36.88-.24.24-.54.36-.88.36h-12.12c-.35,0-.64-.12-.88-.36-.24-.24-.36-.53-.36-.88v-50.76c0-.35.12-.64.36-.88.24-.24.53-.36.88-.36h12.12c.35,0,.64.12.88.36.24.24.36.53.36.88v3.63c0,.21.07.35.21.41.14.07.24.04.31-.1,2.83-4.01,7.05-6.01,12.64-6.01s9.98,1.69,13.36,5.08"/>
    <path class="cls-4" d="M739.91,134.65c-4.04-2.76-6.92-6.56-8.65-11.4-1.18-3.45-1.76-7.53-1.76-12.23s.59-8.63,1.76-12.02c1.66-4.69,4.52-8.39,8.6-11.08,4.07-2.69,8.87-4.04,14.4-4.04s10.38,1.38,14.56,4.14c4.18,2.76,6.96,6.25,8.34,10.46.55,1.66.83,2.9.83,3.73v.21c0,.62-.35,1-1.04,1.14l-11.91,1.76h-.21c-.62,0-1.04-.35-1.24-1.04l-.31-1.66c-.48-1.79-1.55-3.28-3.21-4.45-1.66-1.17-3.63-1.76-5.91-1.76s-4.08.55-5.59,1.66c-1.52,1.11-2.59,2.62-3.21,4.56-.76,2.07-1.14,4.91-1.14,8.5s.34,6.42,1.04,8.5c.62,2.07,1.71,3.69,3.26,4.87s3.43,1.76,5.65,1.76,4.02-.57,5.65-1.71c1.62-1.14,2.75-2.71,3.37-4.71.07-.14.1-.34.1-.62.07-.07.1-.17.1-.31.07-.83.55-1.17,1.45-1.04l11.91,1.87c.69.14,1.04.52,1.04,1.14,0,.55-.21,1.59-.62,3.11-1.45,4.63-4.27,8.25-8.44,10.88-4.18,2.63-9,3.94-14.45,3.94s-10.31-1.38-14.35-4.14"/>
    <path class="cls-4" d="M788.5,76.37c-1.55-1.55-2.33-3.5-2.33-5.85s.76-4.39,2.28-5.9c1.52-1.52,3.49-2.28,5.91-2.28s4.39.76,5.91,2.28c1.52,1.52,2.28,3.49,2.28,5.9s-.78,4.3-2.33,5.85-3.51,2.33-5.85,2.33-4.3-.78-5.85-2.33M787.25,137.6c-.24-.24-.36-.53-.36-.88v-50.87c0-.35.12-.64.36-.88.24-.24.53-.36.88-.36h12.12c.34,0,.64.12.88.36.24.24.36.53.36.88v50.87c0,.35-.12.64-.36.88-.24.24-.54.36-.88.36h-12.12c-.35,0-.64-.12-.88-.36"/>
    <path class="cls-4" d="M846.15,86.22c3.52,1.55,6.27,3.68,8.24,6.37,1.97,2.69,2.95,5.7,2.95,9.01v35.12c0,.35-.12.64-.36.88-.24.24-.54.36-.88.36h-12.12c-.35,0-.64-.12-.88-.36-.24-.24-.36-.53-.36-.88v-3.42c0-.21-.07-.34-.21-.41-.14-.07-.28,0-.41.21-2.9,3.8-7.56,5.7-13.99,5.7-5.39,0-9.74-1.31-13.05-3.94-3.32-2.62-4.97-6.49-4.97-11.6s1.86-9.44,5.59-12.38c3.73-2.93,9.05-4.4,15.95-4.4h10.57c.34,0,.52-.17.52-.52v-2.28c0-2.28-.69-4.06-2.07-5.33-1.38-1.28-3.45-1.92-6.22-1.92-2.14,0-3.92.38-5.34,1.14-1.42.76-2.33,1.83-2.74,3.21-.21.76-.66,1.11-1.35,1.04l-12.54-1.66c-.83-.14-1.21-.45-1.14-.93.28-2.9,1.43-5.53,3.47-7.87,2.04-2.35,4.73-4.18,8.08-5.49,3.35-1.31,7.1-1.97,11.24-1.97,4.49,0,8.5.78,12.02,2.33M839.62,125.53c2.07-1.59,3.11-3.63,3.11-6.11v-3.73c0-.35-.17-.52-.52-.52h-7.46c-3.11,0-5.54.59-7.3,1.76-1.76,1.18-2.64,2.83-2.64,4.97,0,1.86.66,3.33,1.97,4.4,1.31,1.07,3.07,1.61,5.28,1.61,2.97,0,5.49-.79,7.56-2.38"/>
    <path class="cls-4" d="M867.96,137.6c-.24-.24-.36-.53-.36-.88v-70.03c0-.35.12-.64.36-.88.24-.24.53-.36.88-.36h12.12c.35,0,.64.12.88.36.24.24.36.54.36.88v70.03c0,.35-.12.64-.36.88-.24.24-.54.36-.88.36h-12.12c-.35,0-.64-.12-.88-.36"/>
    <path class="cls-4" d="M959.28,136.93l-3.11-10.15c-.14-.28-.31-.42-.52-.42h-25.49c-.21,0-.38.14-.52.42l-3,10.15c-.21.69-.66,1.04-1.35,1.04h-13.16c-.42,0-.73-.12-.93-.36-.21-.24-.24-.6-.1-1.09l22.38-70.03c.21-.69.66-1.04,1.35-1.04h16.27c.69,0,1.14.35,1.34,1.04l22.38,70.03c.07.14.1.31.1.52,0,.62-.38.93-1.14.93h-13.16c-.69,0-1.14-.34-1.35-1.04M933.79,115.07h18.23c.41,0,.55-.21.41-.62l-9.32-30.77c-.07-.27-.17-.4-.31-.36-.14.04-.24.15-.31.36l-9.12,30.77c-.07.42.07.62.41.62"/>
    <path class="cls-4" d="M1014.76,65.81c.24-.24.53-.36.88-.36h12.12c.34,0,.64.12.88.36.24.24.36.54.36.88v70.03c0,.35-.12.64-.36.88-.24.24-.54.36-.88.36h-12.12c-.35,0-.64-.12-.88-.36-.24-.24-.36-.53-.36-.88v-3.42c0-.21-.07-.33-.21-.36-.14-.03-.28.02-.41.16-2.9,3.8-6.87,5.7-11.91,5.7s-9-1.35-12.48-4.04c-3.49-2.69-5.99-6.39-7.51-11.08-1.17-3.59-1.76-7.77-1.76-12.54s.62-9.19,1.86-12.85c1.59-4.42,4.09-7.93,7.51-10.52,3.42-2.59,7.65-3.88,12.69-3.88s8.84,1.73,11.6,5.18c.14.21.27.28.41.21.14-.07.21-.21.21-.41v-22.17c0-.35.12-.64.36-.88M1014.29,111.34c0-4.63-.76-8.25-2.28-10.88-1.59-2.69-3.9-4.04-6.94-4.04-3.25,0-5.7,1.35-7.36,4.04-1.73,2.69-2.59,6.35-2.59,10.98,0,4.14.73,7.6,2.18,10.36,1.72,2.97,4.28,4.46,7.67,4.46,3.11,0,5.53-1.48,7.25-4.46,1.38-2.55,2.07-6.04,2.07-10.46"/>
    <path class="cls-4" d="M1053.45,136.93l-16.58-50.87c-.07-.14-.1-.31-.1-.52,0-.62.38-.93,1.14-.93h13.36c.76,0,1.24.35,1.45,1.04l8.5,31.39c.07.21.17.31.31.31s.24-.1.31-.31l8.49-31.39c.21-.69.69-1.04,1.45-1.04l13.36.21c.41,0,.73.12.93.36.21.24.24.6.1,1.09l-16.47,50.66c-.21.69-.66,1.04-1.35,1.04h-13.57c-.69,0-1.14-.35-1.35-1.04"/>
    <path class="cls-4" d="M1095.87,76.37c-1.55-1.55-2.33-3.5-2.33-5.85s.76-4.39,2.28-5.9c1.52-1.52,3.49-2.28,5.91-2.28s4.39.76,5.9,2.28c1.52,1.52,2.28,3.49,2.28,5.9s-.78,4.3-2.33,5.85c-1.55,1.55-3.51,2.33-5.85,2.33s-4.3-.78-5.85-2.33M1094.63,137.6c-.24-.24-.36-.53-.36-.88v-50.87c0-.35.12-.64.36-.88.24-.24.53-.36.88-.36h12.12c.35,0,.64.12.88.36.24.24.36.53.36.88v50.87c0,.35-.12.64-.36.88-.24.24-.54.36-.88.36h-12.12c-.35,0-.64-.12-.88-.36"/>
    <path class="cls-4" d="M1129.39,136.72c-3.45-1.31-6.13-3.14-8.03-5.49-1.9-2.35-2.85-5.01-2.85-7.98v-1.04c0-.35.12-.64.36-.88.24-.24.54-.36.88-.36h11.5c.34,0,.64.12.88.36.24.24.36.54.36.88v.1c0,1.52.84,2.81,2.54,3.88,1.69,1.07,3.82,1.61,6.37,1.61,2.35,0,4.25-.47,5.7-1.4,1.45-.93,2.18-2.09,2.18-3.47,0-1.24-.62-2.18-1.87-2.8-1.24-.62-3.28-1.28-6.11-1.97-3.25-.83-5.8-1.62-7.67-2.38-4.42-1.52-7.94-3.38-10.57-5.59-2.63-2.21-3.94-5.39-3.94-9.53,0-5.11,1.98-9.17,5.96-12.17,3.97-3,9.24-4.51,15.8-4.51,4.42,0,8.29.71,11.6,2.12,3.31,1.42,5.89,3.4,7.72,5.96,1.83,2.56,2.74,5.46,2.74,8.7,0,.35-.12.64-.36.88-.24.24-.54.36-.88.36h-11.08c-.35,0-.64-.12-.88-.36-.24-.24-.36-.54-.36-.88,0-1.52-.78-2.8-2.33-3.83-1.55-1.04-3.61-1.55-6.16-1.55-2.28,0-4.15.41-5.59,1.24-1.45.83-2.18,1.97-2.18,3.42s.71,2.42,2.12,3.11c1.42.69,3.78,1.42,7.1,2.18.76.21,1.62.43,2.59.67.97.24,2,.54,3.11.88,4.9,1.45,8.77,3.32,11.6,5.6,2.83,2.28,4.25,5.59,4.25,9.94,0,5.11-2.02,9.1-6.06,11.97-4.04,2.87-9.48,4.3-16.32,4.3-4.63,0-8.67-.66-12.12-1.97"/>
    <path class="cls-4" d="M1180.88,134.23c-4.14-3.04-6.98-7.18-8.49-12.43-.97-3.24-1.45-6.77-1.45-10.57,0-4.07.48-7.74,1.45-10.98,1.59-5.11,4.45-9.12,8.6-12.02,4.14-2.9,9.12-4.35,14.92-4.35s10.5,1.43,14.5,4.3c4.01,2.87,6.84,6.86,8.49,11.97,1.1,3.46,1.66,7.08,1.66,10.88s-.48,7.22-1.45,10.46c-1.52,5.39-4.34,9.62-8.44,12.69-4.11,3.07-9.06,4.61-14.87,4.61s-10.77-1.52-14.92-4.56M1201.6,124.18c1.59-1.38,2.73-3.28,3.42-5.7.55-2.21.83-4.63.83-7.25,0-2.9-.28-5.35-.83-7.36-.76-2.35-1.93-4.18-3.52-5.49-1.59-1.31-3.52-1.97-5.8-1.97s-4.3.66-5.85,1.97c-1.55,1.31-2.68,3.14-3.37,5.49-.55,1.66-.83,4.11-.83,7.36s.24,5.53.72,7.25c.69,2.42,1.85,4.32,3.47,5.7,1.62,1.38,3.61,2.07,5.96,2.07s4.21-.69,5.8-2.07"/>
    <path class="cls-4" d="M1262.41,85.44c.55.28.76.79.62,1.55l-2.18,11.81c-.07.83-.55,1.07-1.45.73-1.04-.35-2.24-.52-3.63-.52-.55,0-1.31.07-2.28.21-2.49.21-4.59,1.12-6.32,2.74-1.73,1.62-2.59,3.78-2.59,6.47v28.28c0,.35-.12.64-.36.88-.24.24-.54.36-.88.36h-12.12c-.35,0-.64-.12-.88-.36-.24-.24-.36-.53-.36-.88v-50.76c0-.35.12-.64.36-.88.24-.24.53-.36.88-.36h12.12c.34,0,.64.12.88.36.24.24.36.54.36.88v3.94c0,.21.07.35.21.41.14.07.24.04.31-.1,2.83-4.14,6.63-6.22,11.4-6.22,2.49,0,4.45.48,5.91,1.45"/>
    <path class="cls-4" d="M1277.95,136.72c-3.45-1.31-6.13-3.14-8.03-5.49-1.9-2.35-2.85-5.01-2.85-7.98v-1.04c0-.35.12-.64.36-.88.24-.24.54-.36.88-.36h11.5c.34,0,.64.12.88.36.24.24.36.54.36.88v.1c0,1.52.84,2.81,2.54,3.88,1.69,1.07,3.82,1.61,6.37,1.61,2.35,0,4.25-.47,5.7-1.4,1.45-.93,2.18-2.09,2.18-3.47,0-1.24-.62-2.18-1.87-2.8-1.24-.62-3.28-1.28-6.11-1.97-3.25-.83-5.8-1.62-7.67-2.38-4.42-1.52-7.94-3.38-10.57-5.59-2.63-2.21-3.94-5.39-3.94-9.53,0-5.11,1.98-9.17,5.96-12.17,3.97-3,9.24-4.51,15.8-4.51,4.42,0,8.29.71,11.6,2.12,3.31,1.42,5.89,3.4,7.72,5.96,1.83,2.56,2.74,5.46,2.74,8.7,0,.35-.12.64-.36.88-.24.24-.54.36-.88.36h-11.08c-.35,0-.64-.12-.88-.36-.24-.24-.36-.54-.36-.88,0-1.52-.78-2.8-2.33-3.83-1.55-1.04-3.61-1.55-6.16-1.55-2.28,0-4.15.41-5.59,1.24-1.45.83-2.18,1.97-2.18,3.42s.71,2.42,2.12,3.11c1.42.69,3.78,1.42,7.1,2.18.76.21,1.62.43,2.59.67.97.24,2,.54,3.11.88,4.9,1.45,8.77,3.32,11.6,5.6,2.83,2.28,4.25,5.59,4.25,9.94,0,5.11-2.02,9.1-6.06,11.97-4.04,2.87-9.48,4.3-16.32,4.3-4.63,0-8.67-.66-12.12-1.97"/>
    <path class="cls-4" d="M1384.45,68.14c3.45,1.86,6.13,4.51,8.03,7.92,1.9,3.42,2.85,7.34,2.85,11.76s-.98,8.18-2.95,11.5-4.73,5.89-8.29,7.72c-3.56,1.83-7.65,2.74-12.28,2.74h-14.71c-.35,0-.52.17-.52.52v26.42c0,.35-.12.64-.36.88-.24.24-.54.36-.88.36h-12.12c-.35,0-.64-.12-.88-.36-.24-.24-.36-.54-.36-.88v-70.14c0-.34.12-.64.36-.88.24-.24.53-.36.88-.36h29.22c4.56,0,8.56.93,12.02,2.8M1377.92,95.33c1.93-1.83,2.9-4.23,2.9-7.2s-.97-5.49-2.9-7.36c-1.94-1.86-4.49-2.8-7.67-2.8h-13.16c-.35,0-.52.17-.52.52v19.06c0,.35.17.52.52.52h13.16c3.18,0,5.73-.92,7.67-2.75"/>
    <path class="cls-4" d="M1416.88,136.93l-16.58-50.87c-.07-.14-.1-.31-.1-.52,0-.62.38-.93,1.14-.93h13.36c.76,0,1.24.35,1.45,1.04l8.5,31.39c.07.21.17.31.31.31s.24-.1.31-.31l8.49-31.39c.21-.69.69-1.04,1.45-1.04l13.36.21c.41,0,.73.12.93.36.21.24.24.6.1,1.09l-16.47,50.66c-.21.69-.66,1.04-1.35,1.04h-13.57c-.69,0-1.14-.35-1.35-1.04"/>
    <path class="cls-4" d="M1487.48,96.06c-.24.24-.54.36-.88.36h-9.95c-.35,0-.52.17-.52.52v21.96c0,2.28.47,3.97,1.4,5.08.93,1.11,2.43,1.66,4.51,1.66h3.42c.34,0,.64.12.88.36.24.24.36.54.36.88v9.84c0,.76-.41,1.21-1.24,1.35-2.9.14-4.97.21-6.21.21-5.73,0-10.02-.95-12.85-2.85-2.83-1.9-4.28-5.47-4.35-10.72v-27.76c0-.35-.17-.52-.52-.52h-5.91c-.35,0-.64-.12-.88-.36-.24-.24-.36-.53-.36-.88v-9.22c0-.35.12-.64.36-.88.24-.24.53-.36.88-.36h5.91c.34,0,.52-.17.52-.52v-12.33c0-.35.12-.64.36-.88.24-.24.53-.36.88-.36h11.6c.34,0,.64.12.88.36.24.24.36.54.36.88v12.33c0,.35.17.52.52.52h9.95c.34,0,.64.12.88.36.24.24.36.54.36.88v9.22c0,.35-.12.64-.36.88"/>
    <path class="cls-4" d="M1498.87,136.05c-1.55-1.55-2.33-3.5-2.33-5.85s.76-4.39,2.28-5.91c1.52-1.52,3.49-2.28,5.91-2.28s4.39.76,5.91,2.28c1.52,1.52,2.28,3.49,2.28,5.91s-.78,4.3-2.33,5.85c-1.55,1.56-3.51,2.33-5.85,2.33s-4.3-.78-5.85-2.33"/>
    <path class="cls-4" d="M1546.63,137.6c-.24-.24-.36-.53-.36-.88v-70.03c0-.35.12-.64.36-.88.24-.24.53-.36.88-.36h12.12c.35,0,.64.12.88.36.24.24.36.54.36.88v58.22c0,.35.17.52.52.52h33.88c.34,0,.64.12.88.36.24.24.36.54.36.88v10.05c0,.35-.12.64-.36.88-.24.24-.54.36-.88.36h-47.76c-.35,0-.64-.12-.88-.36"/>
    <path class="cls-4" d="M1633.03,96.06c-.24.24-.54.36-.88.36h-9.95c-.35,0-.52.17-.52.52v21.96c0,2.28.47,3.97,1.4,5.08.93,1.11,2.43,1.66,4.51,1.66h3.42c.34,0,.64.12.88.36.24.24.36.54.36.88v9.84c0,.76-.41,1.21-1.24,1.35-2.9.14-4.97.21-6.21.21-5.73,0-10.02-.95-12.85-2.85-2.83-1.9-4.28-5.47-4.35-10.72v-27.76c0-.35-.17-.52-.52-.52h-5.91c-.35,0-.64-.12-.88-.36-.24-.24-.36-.53-.36-.88v-9.22c0-.35.12-.64.36-.88.24-.24.53-.36.88-.36h5.91c.34,0,.52-.17.52-.52v-12.33c0-.35.12-.64.36-.88.24-.24.53-.36.88-.36h11.6c.34,0,.64.12.88.36.24.24.36.54.36.88v12.33c0,.35.17.52.52.52h9.95c.34,0,.64.12.88.36.24.24.36.54.36.88v9.22c0,.35-.12.64-.36.88"/>
    <path class="cls-4" d="M1674.89,65.81c.24-.24.53-.36.88-.36h12.12c.34,0,.64.12.88.36.24.24.36.54.36.88v70.03c0,.35-.12.64-.36.88-.24.24-.54.36-.88.36h-12.12c-.35,0-.64-.12-.88-.36-.24-.24-.36-.53-.36-.88v-3.42c0-.21-.07-.33-.21-.36-.14-.03-.28.02-.41.16-2.9,3.8-6.87,5.7-11.91,5.7s-9-1.35-12.48-4.04c-3.49-2.69-5.99-6.39-7.51-11.08-1.18-3.59-1.76-7.77-1.76-12.54s.62-9.19,1.86-12.85c1.59-4.42,4.09-7.93,7.51-10.52,3.42-2.59,7.65-3.88,12.69-3.88s8.84,1.73,11.6,5.18c.14.21.27.28.41.21.14-.07.21-.21.21-.41v-22.17c0-.35.12-.64.36-.88M1674.42,111.34c0-4.63-.76-8.25-2.28-10.88-1.59-2.69-3.9-4.04-6.94-4.04-3.25,0-5.7,1.35-7.36,4.04-1.73,2.69-2.59,6.35-2.59,10.98,0,4.14.73,7.6,2.18,10.36,1.72,2.97,4.28,4.46,7.67,4.46,3.11,0,5.53-1.48,7.25-4.46,1.38-2.55,2.07-6.04,2.07-10.46"/>
    <path class="cls-4" d="M1702.34,136.05c-1.55-1.55-2.33-3.5-2.33-5.85s.76-4.39,2.28-5.91c1.52-1.52,3.49-2.28,5.91-2.28s4.39.76,5.91,2.28c1.52,1.52,2.28,3.49,2.28,5.91s-.78,4.3-2.33,5.85c-1.55,1.56-3.51,2.33-5.85,2.33s-4.3-.78-5.85-2.33"/>
  </g>
</svg>