<?xml version="1.0" encoding="UTF-8"?>
<svg id="Objects" xmlns="http://www.w3.org/2000/svg" viewBox="0 0 129.42 129.42">
  <defs>
    <style>
      .cls-1 {
        fill: none;
      }

      .cls-2, .cls-3 {
        fill: #2e51ff;
      }

      .cls-3 {
        font-family: Barlow-Bold, Barlow;
        font-size: 7.13px;
        font-weight: 700;
      }

      .cls-4 {
        letter-spacing: 0em;
      }

      .cls-5 {
        fill: #fff;
      }

      .cls-6 {
        letter-spacing: -.01em;
      }

      .cls-7 {
        letter-spacing: 0em;
      }

      .cls-8 {
        letter-spacing: 0em;
      }

      .cls-9 {
        fill: #ff7300;
      }
    </style>
  </defs>
  <g>
    <path class="cls-2" d="M109,59.27c0,.37.02.73.02,1.1,0,.61-.02,1.21-.05,1.82h-4.01c-.8,0-1.46-.65-1.46-1.45s.66-1.46,1.46-1.46h4.04Z"/>
    <path class="cls-2" d="M110.94,66.8c-.39,9.81-3.55,18.91-8.7,26.54-7.07,5.5-15.95,8.78-25.59,8.78-23.03,0-41.76-18.73-41.76-41.76s18.73-41.77,41.76-41.77c2.2,0,4.36.17,6.48.5,8.52,4.38,15.66,11.07,20.57,19.26-6.4-7.86-16.14-12.88-27.04-12.88-19.23,0-34.88,15.65-34.88,34.89s15.65,34.88,34.88,34.88c1.4,0,2.78-.08,4.13-.25,15.17-1.79,27.38-13.35,30.16-28.2Z"/>
    <path class="cls-2" d="M98.72,70.63c.14.37.14.76-.02,1.11-.15.36-.44.62-.8.77-.36.15-.76.14-1.1,0l-20.62-8.94c-.54-.23-.88-.77-.86-1.43l-.02-.25v-17.01c0-.81.65-1.46,1.45-1.46s1.46.65,1.46,1.46v16.4l19.74,8.56c.35.15.62.44.77.8Z"/>
    <path class="cls-2" d="M97.36,99.49c-9.35,10.13-22.75,16.46-37.63,16.46-28.3,0-51.24-22.94-51.24-51.24S31.43,13.47,59.73,13.47c5.68,0,11.14.93,16.25,2.63-24.1.35-43.61,20.08-43.61,44.27s19.86,44.27,44.27,44.27c7.48,0,14.54-1.86,20.72-5.15Z"/>
    <path class="cls-2" d="M78.22,88.92v3.77c-.53.04-1.05.04-1.58.04-.45,0-.89,0-1.34-.03v-3.79c0-.8.65-1.45,1.45-1.45s1.46.65,1.46,1.45Z"/>
    <path class="cls-2" d="M78.22,28.03v4.5c0,.8-.66,1.46-1.46,1.46s-1.45-.66-1.45-1.46v-4.52c.45-.02.89-.03,1.34-.03.53,0,1.05,0,1.58.04Z"/>
    <path class="cls-2" d="M48.56,59.27c.8,0,1.45.66,1.45,1.46s-.65,1.45-1.45,1.45h-4.24c-.04-.61-.05-1.21-.05-1.82,0-.37,0-.73.02-1.1h4.28Z"/>
    <path class="cls-1" d="M50.02,60.73c0-.8-.65-1.46-1.45-1.46h-4.28c0,.37-.02.73-.02,1.1,0,.61.02,1.21.05,1.82h4.24c.8,0,1.45-.65,1.45-1.45Z"/>
    <path class="cls-1" d="M78.22,88.92c0-.8-.66-1.45-1.46-1.45s-1.45.65-1.45,1.45v3.79c.45.02.89.03,1.34.03.53,0,1.05,0,1.58-.04v-3.77Z"/>
    <path class="cls-1" d="M103.5,60.73c0,.8.66,1.45,1.46,1.45h4.01c.04-.61.05-1.21.05-1.82,0-.37,0-.73-.02-1.1h-4.04c-.8,0-1.46.66-1.46,1.46Z"/>
    <path class="cls-1" d="M75.3,32.53c0,.8.65,1.46,1.45,1.46s1.46-.66,1.46-1.46v-4.5c-.53-.04-1.05-.04-1.58-.04-.45,0-.89,0-1.34.03v4.52Z"/>
    <path class="cls-1" d="M97.96,69.83l-19.74-8.56v-16.4c0-.81-.66-1.46-1.46-1.46s-1.45.65-1.45,1.46v17.01l.02.25c-.03.65.31,1.19.86,1.43l20.62,8.94c.35.15.75.16,1.1,0,.37-.14.65-.41.8-.77.16-.36.16-.75.02-1.11s-.42-.65-.77-.8Z"/>
    <path class="cls-1" d="M83.12,19.1c-2.11-.33-4.28-.5-6.48-.5-23.03,0-41.76,18.74-41.76,41.77s18.73,41.76,41.76,41.76c9.64,0,18.52-3.28,25.59-8.78,9.84-7.64,16.18-19.58,16.18-32.98,0-20.83-15.32-38.14-35.29-41.27ZM110.94,66.8c-2.78,14.85-14.99,26.41-30.16,28.2-1.35.17-2.73.25-4.13.25-19.23,0-34.88-15.65-34.88-34.88s15.65-34.89,34.88-34.89c10.9,0,20.65,5.02,27.04,12.88,4.91,6,7.85,13.67,7.85,22.01,0,2.2-.2,4.35-.6,6.43Z"/>
    <path class="cls-9" d="M76.64,25.48c-19.23,0-34.88,15.65-34.88,34.89s15.65,34.88,34.88,34.88c1.4,0,2.78-.08,4.13-.25,15.17-1.79,27.38-13.35,30.16-28.2.39-2.08.6-4.23.6-6.43,0-8.34-2.94-16.01-7.85-22.01-6.4-7.86-16.14-12.88-27.04-12.88ZM78.22,28.03v4.5c0,.8-.66,1.46-1.46,1.46s-1.45-.66-1.45-1.46v-4.52c.45-.02.89-.03,1.34-.03.53,0,1.05,0,1.58.04ZM44.27,60.37c0-.37,0-.73.02-1.1h4.28c.8,0,1.45.66,1.45,1.46s-.65,1.45-1.45,1.45h-4.24c-.04-.61-.05-1.21-.05-1.82ZM75.3,92.71v-3.79c0-.8.65-1.45,1.45-1.45s1.46.65,1.46,1.45v3.77c-.53.04-1.05.04-1.58.04-.45,0-.89,0-1.34-.03ZM80.73,92.48v-3.55c0-2.19-1.78-3.96-3.97-3.96s-3.96,1.77-3.96,3.96v3.58c-14.62-1.74-26.28-13.25-28.24-27.81h4.01c2.19,0,3.96-1.78,3.96-3.96s-1.77-3.97-3.96-3.97h-4.09c1.66-14.89,13.46-26.78,28.32-28.54v4.31c0,2.19,1.78,3.97,3.96,3.97s3.97-1.78,3.97-3.97v-4.28c14.76,1.87,26.44,13.7,28.09,28.51h-3.86c-2.19,0-3.97,1.78-3.97,3.97,0,1.23.56,2.32,1.44,3.06.69.57,1.57.91,2.53.91h3.78c-1.95,14.47-13.49,25.95-28.01,27.78ZM109.02,60.37c0,.61-.02,1.21-.05,1.82h-4.01c-.8,0-1.46-.65-1.46-1.45s.66-1.46,1.46-1.46h4.04c0,.37.02.73.02,1.1Z"/>
    <path class="cls-5" d="M102.43,63.79c-.88-.73-1.44-1.83-1.44-3.06,0-2.19,1.78-3.97,3.97-3.97h3.86c-1.65-14.81-13.33-26.64-28.09-28.51v4.28c0,2.19-1.78,3.97-3.97,3.97s-3.96-1.78-3.96-3.97v-4.31c-14.86,1.76-26.66,13.65-28.32,28.54h4.09c2.19,0,3.96,1.78,3.96,3.97s-1.77,3.96-3.96,3.96h-4.01c1.96,14.56,13.62,26.07,28.24,27.81v-3.58c0-2.19,1.78-3.96,3.96-3.96s3.97,1.77,3.97,3.96v3.55c14.52-1.83,26.05-13.31,28.01-27.78h-3.78c-.96,0-1.84-.34-2.53-.91ZM101.01,72.74c-.65,1.5-2.11,2.39-3.64,2.39-.53,0-1.06-.11-1.58-.32l-20.61-8.94c-1.43-.61-2.35-2-2.37-3.57l-.02-.24v-17.18c0-2.19,1.78-3.97,3.96-3.97s3.97,1.78,3.97,3.97v14.75l18.23,7.9c.97.42,1.72,1.19,2.11,2.18.38.99.37,2.07-.05,3.04Z"/>
    <path class="cls-9" d="M76.64,16.09c-.22,0-.44,0-.66,0-24.1.35-43.61,20.08-43.61,44.27s19.86,44.27,44.27,44.27c7.48,0,14.54-1.86,20.72-5.15,14-7.45,23.56-22.19,23.56-39.12,0-24.42-19.86-44.28-44.28-44.28ZM102.23,93.34c-7.07,5.5-15.95,8.78-25.59,8.78-23.03,0-41.76-18.73-41.76-41.76s18.73-41.77,41.76-41.77c2.2,0,4.36.17,6.48.5,19.97,3.13,35.29,20.44,35.29,41.27,0,13.4-6.33,25.33-16.18,32.98Z"/>
    <path class="cls-9" d="M98.95,67.52l-18.23-7.9v-14.75c0-2.19-1.78-3.97-3.97-3.97s-3.96,1.78-3.96,3.97v17.18l.02.24c.02,1.57.94,2.96,2.37,3.57l20.61,8.94c.52.21,1.05.32,1.58.32,1.53,0,2.99-.89,3.64-2.39.42-.97.44-2.05.05-3.04-.39-.99-1.14-1.76-2.11-2.18ZM98.71,71.74c-.15.36-.44.62-.8.77-.36.15-.76.14-1.1,0l-20.62-8.94c-.54-.23-.88-.77-.86-1.43l-.02-.25v-17.01c0-.81.65-1.46,1.45-1.46s1.46.65,1.46,1.46v16.4l19.74,8.56c.35.15.62.44.77.8s.14.76-.02,1.11Z"/>
  </g>
  <g>
    <rect class="cls-5" x="18.51" y="97.54" width="24.19" height="17.55" rx="3.85" ry="3.85"/>
    <g>
      <path class="cls-1" d="M41.03,114.52c.88,0,1.6-.72,1.6-1.6v-13.98h-23.55v13.98c0,.88.72,1.6,1.6,1.6h20.36Z"/>
      <path class="cls-1" d="M24.55,95.46c.29,0,.54-.24.54-.53v-4.65c0-.3-.24-.54-.54-.54s-.54.24-.54.54v4.65c0,.29.24.53.54.53Z"/>
      <path class="cls-1" d="M27.69,95.46c.3,0,.54-.24.54-.53v-4.65c0-.3-.24-.54-.54-.54s-.53.24-.53.54v4.65c0,.29.24.53.53.53Z"/>
      <path class="cls-1" d="M30.29,94.92c0,.29.24.53.53.53s.54-.24.54-.53v-4.65c0-.24-.15-.44-.37-.51-.05-.02-.11-.03-.17-.03-.14,0-.27.06-.37.15-.1.1-.16.23-.16.39v4.65Z"/>
      <path class="cls-1" d="M21.41,95.46c.29,0,.53-.24.53-.53v-4.65c0-.3-.24-.54-.53-.54s-.54.24-.54.54v4.65c0,.29.24.53.54.53Z"/>
      <path class="cls-1" d="M40.23,95.46c.3,0,.54-.24.54-.53v-4.65c0-.3-.24-.54-.54-.54s-.53.24-.53.54v4.65c0,.29.24.53.53.53Z"/>
      <path class="cls-1" d="M33.43,90.27v4.65c0,.29.24.53.53.53s.54-.24.54-.53v-4.65c0-.3-.24-.54-.54-.54s-.53.24-.53.54Z"/>
      <path class="cls-1" d="M36.56,90.27v4.65c0,.29.24.53.53.53s.54-.24.54-.53v-4.65c0-.11-.03-.22-.09-.3-.1-.14-.26-.23-.44-.23-.09,0-.18.02-.25.06-.17.09-.28.27-.28.47Z"/>
      <path class="cls-9" d="M41.03,115.09c.67,0,1.27-.31,1.67-.79.31-.38.5-.86.5-1.38v-18.65c0-1.09-.81-1.99-1.86-2.14v-1.87c0-.61-.5-1.11-1.11-1.11s-1.1.5-1.1,1.11v1.84h-.93v-1.84s0-.07,0-.11c-.05-.56-.53-1-1.1-1-.39,0-.73.2-.93.5-.11.17-.18.38-.18.6v1.84h-.93v-1.84c0-.3-.12-.56-.3-.76-.2-.21-.49-.34-.8-.34s-.58.13-.79.33c-.2.2-.32.47-.32.78v1.84h-.92v-1.84c0-.24-.07-.46-.2-.64-.2-.28-.53-.47-.9-.47-.54,0-1,.39-1.09.91-.01.06-.02.13-.02.19v1.84h-.93v-1.84c0-.61-.5-1.11-1.11-1.11s-1.11.5-1.11,1.11v1.84h-.92v-1.84c0-.61-.5-1.11-1.11-1.11s-1.11.5-1.11,1.11v1.84h-.92v-1.84c0-.61-.5-1.11-1.11-1.11s-1.11.5-1.11,1.11v1.87c-1.02.18-1.8,1.06-1.8,2.13v18.65c0,1.2.97,2.17,2.17,2.17h20.36ZM39.7,90.27c0-.3.24-.54.53-.54s.54.24.54.54v4.65c0,.29-.24.53-.54.53s-.53-.24-.53-.53v-4.65ZM37.1,89.73c.19,0,.35.09.44.23.06.09.09.19.09.3v4.65c0,.29-.24.53-.54.53s-.53-.24-.53-.53v-4.65c0-.2.11-.38.28-.47.07-.04.16-.06.25-.06ZM34.5,90.27v4.65c0,.29-.24.53-.54.53s-.53-.24-.53-.53v-4.65c0-.3.24-.54.53-.54s.54.24.54.54ZM30.82,89.73c.06,0,.12,0,.17.03.21.07.37.27.37.51v4.65c0,.29-.24.53-.54.53s-.53-.24-.53-.53v-4.65c0-.15.06-.29.16-.39.1-.09.23-.15.37-.15ZM27.15,90.27c0-.3.24-.54.53-.54s.54.24.54.54v4.65c0,.29-.24.53-.54.53s-.53-.24-.53-.53v-4.65ZM24.01,90.27c0-.3.24-.54.54-.54s.54.24.54.54v4.65c0,.29-.24.53-.54.53s-.54-.24-.54-.53v-4.65ZM20.88,90.27c0-.3.24-.54.54-.54s.53.24.53.54v4.65c0,.29-.24.53-.53.53s-.54-.24-.54-.53v-4.65ZM19.08,94.28c0-.76.53-1.39,1.23-1.55v2.2c0,.61.5,1.1,1.11,1.1.19,0,.36-.05.52-.13.3-.16.52-.46.58-.81,0-.05.01-.11.01-.17v-2.24h.92v2.24c0,.61.5,1.1,1.11,1.1s1.11-.5,1.11-1.1v-2.24h.92v2.24c0,.61.5,1.1,1.11,1.1s1.11-.5,1.11-1.1v-2.24h.93v2.24c0,.61.5,1.1,1.1,1.1s1.11-.5,1.11-1.1v-2.24h.92v2.24c0,.61.5,1.1,1.11,1.1s1.11-.5,1.11-1.1v-2.24h.93v2.24c0,.61.5,1.1,1.1,1.1s1.11-.5,1.11-1.1v-2.24h.93v2.24c0,.61.5,1.1,1.1,1.1s1.11-.5,1.11-1.1v-2.21c.73.15,1.29.79,1.29,1.57v4.1h-23.55v-4.1ZM20.67,114.52c-.88,0-1.6-.72-1.6-1.6v-13.98h23.55v13.98c0,.88-.72,1.6-1.6,1.6h-20.36Z"/>
      <path class="cls-5" d="M42.63,98.38v-4.1c0-.77-.55-1.42-1.29-1.57v2.21c0,.61-.5,1.1-1.11,1.1s-1.1-.5-1.1-1.1v-2.24h-.93v2.24c0,.61-.5,1.1-1.11,1.1s-1.1-.5-1.1-1.1v-2.24h-.93v2.24c0,.61-.5,1.1-1.11,1.1s-1.11-.5-1.11-1.1v-2.24h-.92v2.24c0,.61-.5,1.1-1.11,1.1s-1.1-.5-1.1-1.1v-2.24h-.93v2.24c0,.61-.5,1.1-1.11,1.1s-1.11-.5-1.11-1.1v-2.24h-.92v2.24c0,.61-.5,1.1-1.11,1.1s-1.11-.5-1.11-1.1v-2.24h-.92v2.24c0,.06,0,.11-.01.17-.05.35-.27.65-.58.81-.16.08-.33.13-.52.13-.61,0-1.11-.5-1.11-1.1v-2.2c-.7.17-1.23.8-1.23,1.55v4.1h23.55Z"/>
    </g>
    <text class="cls-3" transform="translate(23.64 108.81)"><tspan class="cls-8" x="0" y="0">D</tspan><tspan class="cls-6" x="4.38" y="0">a</tspan><tspan class="cls-7" x="8.07" y="0">t</tspan><tspan class="cls-4" x="10.73" y="0">e</tspan></text>
  </g>
</svg>