<?xml version="1.0" encoding="UTF-8"?>
<svg id="Objects" xmlns="http://www.w3.org/2000/svg" viewBox="0 0 129.42 129.42">
  <defs>
    <style>
      .cls-1 {
        fill: #2e51ff;
      }

      .cls-2 {
        fill: #fff;
        stroke: #ff7300;
        stroke-miterlimit: 10;
        stroke-width: 2px;
      }

      .cls-3 {
        fill: #ff7300;
      }
    </style>
  </defs>
  <circle class="cls-1" cx="61.89" cy="64.71" r="51.24"/>
  <rect class="cls-2" x="29.55" y="24.57" width="89.21" height="62.95" rx="6.49" ry="6.49"/>
  <path class="cls-3" d="M87.31,56.29h-42.93c-.72,0-1.32.43-1.32.98s.59.99,1.32.99h42.93c.72,0,1.32-.44,1.32-.99s-.59-.98-1.32-.98Z"/>
  <path class="cls-3" d="M87.31,63.05h-42.93c-.72,0-1.32.43-1.32.98s.59.99,1.32.99h42.93c.72,0,1.32-.44,1.32-.99s-.59-.98-1.32-.98Z"/>
  <path class="cls-3" d="M87.31,69.81h-42.93c-.72,0-1.32.43-1.32.98s.59.99,1.32.99h42.93c.72,0,1.32-.44,1.32-.99s-.59-.98-1.32-.98Z"/>
  <path class="cls-3" d="M112.3,79.22h-17.14c-.29,0-.53.23-.53.53s.24.53.53.53h17.14c.29,0,.53-.24.53-.53s-.24-.53-.53-.53Z"/>
  <path class="cls-3" d="M61.69,46.1h-17.14c-.29,0-.53.23-.53.53s.24.53.53.53h17.14c.29,0,.53-.24.53-.53s-.24-.53-.53-.53Z"/>
  <rect class="cls-3" x="92.16" y="33.71" width="17.34" height="17.34" rx="1.86" ry="1.86"/>
</svg>