<?xml version="1.0" encoding="UTF-8"?>
<svg id="Objects" xmlns="http://www.w3.org/2000/svg" viewBox="0 0 129.42 129.42">
  <defs>
    <style>
      .cls-1 {
        fill: none;
      }

      .cls-2 {
        fill: #34536b;
      }

      .cls-3 {
        fill: #2e51ff;
      }

      .cls-4 {
        fill: #fff;
      }

      .cls-5 {
        fill: #ff7300;
      }
    </style>
  </defs>
  <path class="cls-3" d="M115.95,64.71c0,10.84-3.37,20.91-9.12,29.18-3.9-9.1-12.96-15.5-23.48-15.5h-5.9l-1.07-3.06c4.6-3.25,7.78-8.37,8.43-14.26.04,0,.09,0,.13,0,2.56,0,4.63-2.08,4.63-4.63v-7.06c0-2.56-2.08-4.63-4.63-4.63v2.31h0v-7.9c0-11.13-9.05-20.19-20.18-20.19l.07-5.5c28.26.06,51.13,22.97,51.13,51.25Z"/>
  <path class="cls-3" d="M34.88,106.37h59.65c-8.4,6.03-18.7,9.58-29.82,9.58s-21.43-3.55-29.83-9.58Z"/>
  <path class="cls-2" d="M87.27,49.39v7.06c0,1.27-1.13,2.29-2.33,2.32v-11.7h0c1.28,0,2.32,1.04,2.32,2.32Z"/>
  <path class="cls-3" d="M82.63,50.39v8.46c0,9.86-8.02,17.89-17.88,17.89s-17.89-8.03-17.89-17.89v-7.71c.72-6.45,3.36-9.92,4.45-11.11,3.86,1.58,8.42,2.41,13.25,2.41s9.63-.89,13.5-2.51c1.12,1.11,3.85,4.39,4.56,10.47Z"/>
  <path class="cls-3" d="M82.63,39.17v3.22c-1.64-3.17-3.51-4.63-3.63-4.73l-.55-.42-.63.29c-7.33,3.33-18.88,3.37-26.29.09l-.65-.29-.55.45c-.12.1-1.88,1.58-3.46,4.85v-3.45c0-9.86,8.03-17.89,17.89-17.89s17.88,8.03,17.88,17.89Z"/>
  <path class="cls-3" d="M74.38,76.6l1.62,4.64c-10.85,4.67-19.66,1.28-22.27.04l1.44-4.65c2.85,1.55,6.11,2.42,9.58,2.42s6.76-.88,9.63-2.45Z"/>
  <path class="cls-3" d="M64.82,13.47l-.07,5.5c-11.13,0-20.19,9.06-20.19,20.19v5.6c-2.47.1-4.44,2.13-4.44,4.62v7.06c0,2.54,2.04,4.6,4.57,4.63.65,5.9,3.85,11.04,8.47,14.28l-.94,3.03h-5.78c-10.64,0-19.78,6.55-23.61,15.83-5.89-8.34-9.35-18.52-9.35-29.51,0-28.31,22.95-51.25,51.25-51.25h.11Z"/>
  <path class="cls-2" d="M44.56,50.96v7.8c-1.12-.12-2.14-1.1-2.14-2.31v-7.06c0-1.22.94-2.23,2.14-2.32v3.88Z"/>
  <path class="cls-1" d="M50.32,37.77l.55-.45.65.29c7.4,3.28,18.96,3.24,26.29-.09l.63-.29.55.42c.12.1,2,1.56,3.63,4.73v-3.22c0-9.86-8.02-17.89-17.88-17.89s-17.89,8.03-17.89,17.89v3.45c1.58-3.27,3.34-4.75,3.46-4.85Z"/>
  <path class="cls-1" d="M44.56,50.96v-3.88c-1.19.09-2.14,1.1-2.14,2.32v7.06c0,1.21,1.02,2.18,2.14,2.31v-7.8Z"/>
  <path class="cls-1" d="M82.63,58.85v-8.46c-.71-6.08-3.44-9.35-4.56-10.47-3.87,1.62-8.63,2.51-13.5,2.51s-9.39-.83-13.25-2.41c-1.1,1.18-3.73,4.66-4.45,11.11v7.71c0,9.86,8.03,17.89,17.89,17.89s17.88-8.03,17.88-17.89Z"/>
  <path class="cls-1" d="M76,81.24l-1.62-4.64c-2.87,1.57-6.15,2.45-9.63,2.45s-6.73-.87-9.58-2.42l-1.44,4.65c2.61,1.25,11.42,4.63,22.27-.04Z"/>
  <path class="cls-5" d="M83.35,78.4h-5.9l-1.07-3.06c4.6-3.25,7.78-8.37,8.43-14.26.04,0,.09,0,.13,0,2.56,0,4.63-2.08,4.63-4.63v-7.06c0-2.56-2.08-4.63-4.63-4.63v2.31c1.28,0,2.32,1.04,2.32,2.32v7.06c0,1.27-1.13,2.29-2.33,2.32v-19.61c0-11.13-9.05-20.19-20.18-20.19s-20.19,9.06-20.19,20.19v5.6c-2.47.1-4.44,2.13-4.44,4.62v7.06c0,2.54,2.04,4.6,4.57,4.63.65,5.9,3.85,11.04,8.47,14.28l-.94,3.03h-5.78c-10.64,0-19.78,6.55-23.61,15.83-1.24,2.98-1.92,6.26-1.92,9.69,0,.34.02.67.04,1l.08,1.46h87.72l.08-1.5c.03-.32.04-.63.04-.96,0-3.55-.73-6.95-2.05-10.02-3.9-9.1-12.96-15.5-23.48-15.5ZM46.86,39.17c0-9.86,8.03-17.89,17.89-17.89s17.88,8.03,17.88,17.89v3.22c-1.64-3.17-3.51-4.63-3.63-4.73l-.55-.42-.63.29c-7.33,3.33-18.88,3.37-26.29.09l-.65-.29-.55.45c-.12.1-1.88,1.58-3.46,4.85v-3.45ZM42.42,56.46v-7.06c0-1.22.94-2.23,2.14-2.32v11.69c-1.12-.12-2.14-1.1-2.14-2.31ZM46.86,58.85v-7.71c.72-6.45,3.36-9.92,4.45-11.11,3.86,1.58,8.42,2.41,13.25,2.41s9.63-.89,13.5-2.51c1.12,1.11,3.85,4.39,4.56,10.47v8.46c0,9.86-8.02,17.89-17.88,17.89s-17.89-8.03-17.89-17.89ZM64.75,79.05c3.48,0,6.76-.88,9.63-2.45l1.62,4.64c-10.85,4.67-19.66,1.28-22.27.04l1.44-4.65c2.85,1.55,6.11,2.42,9.58,2.42ZM106.57,104.07H23.21v-.15c0-2.63.44-5.15,1.25-7.5,3.12-9.13,11.78-15.71,21.97-15.71h5.06l-.52,1.67.77.46c.31.19,5.31,3.14,12.87,3.14,3.87,0,8.4-.77,13.32-3.08l.94-.44-.61-1.75h5.1c10.07,0,18.65,6.43,21.87,15.39.87,2.44,1.35,5.08,1.35,7.82v.15Z"/>
  <path class="cls-4" d="M83.35,80.7h-5.1l.61,1.75-.94.44c-4.92,2.31-9.45,3.08-13.32,3.08-7.56,0-12.56-2.95-12.87-3.14l-.77-.46.52-1.67h-5.06c-10.18,0-18.85,6.58-21.97,15.71-.81,2.35-1.25,4.87-1.25,7.5v.15h83.36v-.15c0-2.74-.48-5.38-1.35-7.82-3.22-8.96-11.8-15.39-21.87-15.39Z"/>
</svg>