<?xml version="1.0" encoding="UTF-8"?>
<svg id="Objects" xmlns="http://www.w3.org/2000/svg" viewBox="0 0 129.42 129.42">
  <defs>
    <style>
      .cls-1 {
        fill: none;
      }

      .cls-2 {
        fill: #2e51ff;
      }

      .cls-3 {
        fill: #fff;
      }

      .cls-4 {
        fill: #ff7300;
      }
    </style>
  </defs>
  <path class="cls-2" d="M109.4,52.31c.99,3.97,1.51,8.12,1.51,12.4,0,14.75-6.24,28.04-16.21,37.38-7.7,1.28-15.79-.55-22.13-5.21,12.66-7.69,20.45-21.42,20.45-36.32,0-5.47-1.05-10.82-3.14-15.93,7.53.03,14.37,2.94,19.51,7.68Z"/>
  <path class="cls-2" d="M59.67,13.47c22.41,0,41.47,14.39,48.42,34.45-5.17-3.7-11.48-5.87-18.31-5.87-.35,0-.69.02-1.03.04-7.08-14.61-21.98-24-38.21-24-8.67,0-16.74,2.61-23.47,7.09,8.85-7.31,20.21-11.7,32.59-11.7Z"/>
  <path class="cls-2" d="M70.12,98.26c5.99,4.77,13.6,7.12,21.15,6.8-8.7,6.82-19.68,10.89-31.6,10.89-13.29,0-25.4-5.06-34.51-13.37l6.93-3.79c5.83,2.82,12.03,4.25,18.46,4.25,6.81,0,13.56-1.65,19.57-4.78Z"/>
  <path class="cls-2" d="M67.11,59.45c1.43,0,2.6,1.17,2.6,2.6s-1.17,2.59-2.6,2.59-2.59-1.17-2.59-2.59,1.17-2.6,2.59-2.6Z"/>
  <path class="cls-2" d="M52.4,59.45c1.43,0,2.59,1.17,2.59,2.6s-1.17,2.59-2.59,2.59-2.6-1.17-2.6-2.59,1.17-2.6,2.6-2.6Z"/>
  <path class="cls-2" d="M37.69,59.45c1.43,0,2.6,1.17,2.6,2.6s-1.17,2.59-2.6,2.59-2.59-1.17-2.59-2.59,1.17-2.6,2.59-2.6Z"/>
  <path class="cls-2" d="M16.27,85.59l-1.38,4.04c-3.89-6.97-6.2-14.93-6.44-23.41.93,6.97,3.58,13.58,7.82,19.37Z"/>
  <path class="cls-1" d="M67.11,59.45c-1.43,0-2.59,1.17-2.59,2.6s1.17,2.59,2.59,2.59,2.6-1.17,2.6-2.59-1.17-2.6-2.6-2.6Z"/>
  <path class="cls-1" d="M112.87,91.04c3.85-5.08,5.89-11.11,5.89-17.44,0-8.41-3.61-16-9.35-21.29-5.14-4.74-11.98-7.65-19.51-7.68,2.08,5.1,3.14,10.46,3.14,15.93,0,14.89-7.79,28.63-20.45,36.32,6.33,4.66,14.43,6.49,22.13,5.21,2.78-.46,5.5-1.34,8.08-2.63l.61-.3,14.35,7.84-5.28-15.4.41-.55Z"/>
  <path class="cls-1" d="M52.4,59.45c-1.43,0-2.6,1.17-2.6,2.6s1.17,2.59,2.6,2.59,2.59-1.17,2.59-2.59-1.17-2.6-2.59-2.6Z"/>
  <path class="cls-1" d="M37.69,59.45c-1.43,0-2.59,1.17-2.59,2.6s1.17,2.59,2.59,2.59,2.6-1.17,2.6-2.59-1.17-2.6-2.6-2.6Z"/>
  <path class="cls-4" d="M121.35,73.6c0-10.58-5.24-19.96-13.25-25.69-5.17-3.7-11.48-5.87-18.31-5.87-.35,0-.69.02-1.03.04-7.08-14.61-21.98-24-38.21-24-8.67,0-16.74,2.61-23.47,7.09,0,0,0,0-.02,0-11.44,7.62-18.99,20.64-18.99,35.38,0,1.91.12,3.8.38,5.67.93,6.97,3.58,13.58,7.82,19.37l-1.38,4.04-7.84,22.85,18.11-9.91,6.93-3.79c5.83,2.82,12.03,4.25,18.46,4.25,6.81,0,13.56-1.65,19.57-4.78,5.99,4.77,13.6,7.12,21.15,6.8,4.14-.18,8.26-1.15,12.07-2.98l19.03,10.4-7.01-20.43c3.92-5.42,5.99-11.78,5.99-18.45ZM32.65,96.18l-.61-.31-8.84,4.84-11.53,6.31,4.96-14.47,2.54-7.41-.42-.55c-5.3-6.99-8.1-15.3-8.1-24.02,0-21.99,17.9-39.89,39.89-39.89,15.52,0,29.74,9.15,36.24,23.29,2.41,5.28,3.64,10.87,3.64,16.6,0,14.59-7.96,28.01-20.78,35.02-5.83,3.19-12.43,4.87-19.1,4.87-6.24,0-12.27-1.44-17.9-4.28ZM117.74,107l-14.35-7.84-.61.3c-2.57,1.29-5.3,2.16-8.08,2.63-7.7,1.28-15.79-.55-22.13-5.21,12.66-7.69,20.45-21.42,20.45-36.32,0-5.47-1.05-10.82-3.14-15.93,7.53.03,14.37,2.94,19.51,7.68,5.75,5.29,9.35,12.88,9.35,21.29,0,6.33-2.04,12.36-5.89,17.44l-.41.55,5.28,15.4Z"/>
  <path class="cls-3" d="M90.43,60.56c0-5.73-1.23-11.31-3.64-16.6-6.49-14.15-20.72-23.29-36.24-23.29-21.99,0-39.89,17.9-39.89,39.89,0,8.71,2.8,17.02,8.1,24.02l.42.55-2.54,7.41-4.96,14.47,11.53-6.31,8.84-4.84.61.31c5.64,2.83,11.66,4.28,17.9,4.28,6.67,0,13.27-1.68,19.1-4.87,12.82-7.01,20.78-20.43,20.78-35.02ZM37.69,66.95c-2.7,0-4.9-2.2-4.9-4.9s2.2-4.91,4.9-4.91,4.91,2.2,4.91,4.91-2.2,4.9-4.91,4.9ZM52.4,66.95c-2.71,0-4.91-2.2-4.91-4.9s2.2-4.91,4.91-4.91,4.9,2.2,4.9,4.91-2.2,4.9-4.9,4.9ZM62.21,62.05c0-2.71,2.2-4.91,4.9-4.91s4.91,2.2,4.91,4.91-2.2,4.9-4.91,4.9-4.9-2.2-4.9-4.9Z"/>
  <path class="cls-4" d="M72.02,62.05c0-2.71-2.2-4.91-4.91-4.91s-4.9,2.2-4.9,4.91,2.2,4.9,4.9,4.9,4.91-2.2,4.91-4.9ZM67.11,64.64c-1.43,0-2.59-1.17-2.59-2.59s1.17-2.6,2.59-2.6,2.6,1.17,2.6,2.6-1.17,2.59-2.6,2.59Z"/>
  <path class="cls-4" d="M52.4,57.14c-2.71,0-4.91,2.2-4.91,4.91s2.2,4.9,4.91,4.9,4.9-2.2,4.9-4.9-2.2-4.91-4.9-4.91ZM52.4,64.64c-1.43,0-2.6-1.17-2.6-2.59s1.17-2.6,2.6-2.6,2.59,1.17,2.59,2.6-1.17,2.59-2.59,2.59Z"/>
  <path class="cls-4" d="M37.69,57.14c-2.7,0-4.9,2.2-4.9,4.91s2.2,4.9,4.9,4.9,4.91-2.2,4.91-4.9-2.2-4.91-4.91-4.91ZM37.69,64.64c-1.43,0-2.59-1.17-2.59-2.59s1.17-2.6,2.59-2.6,2.6,1.17,2.6,2.6-1.17,2.59-2.6,2.59Z"/>
</svg>